<svg width="243" height="85" viewBox="0 0 243 85" fill="none" xmlns="http://www.w3.org/2000/svg">
<path fill-rule="evenodd" clip-rule="evenodd" d="M31.64 73.8735C32.07 73.8735 32.45 74.0303 32.76 74.3634L35.87 77.6651C34.15 79.7618 32.03 81.3588 29.51 82.4757C27 83.5828 23.98 84.1413 20.46 84.1413C17.31 84.1413 14.48 83.6122 11.96 82.5639C9.45 81.5057 7.3 80.0361 5.52 78.155C3.74 76.2739 2.37 74.0303 1.42 71.4241C0.48 68.818 0 65.9669 0 62.8807C0 59.7554 0.53 56.8945 1.59 54.2982C2.64 51.692 4.13 49.4582 6.05 47.5771C7.97 45.696 10.26 44.2362 12.93 43.1878C15.6 42.1493 18.55 41.6202 21.78 41.6202C24.93 41.6202 27.69 42.1199 30.04 43.0997C32.4 44.0892 34.42 45.4021 36.1 47.0284L33.46 50.6241C33.31 50.8593 33.11 51.0552 32.86 51.2316C32.62 51.3981 32.28 51.4863 31.85 51.4863C31.4 51.4863 30.94 51.3197 30.47 50.967C30 50.6241 29.4 50.2518 28.68 49.8501C27.95 49.4484 27.04 49.0761 25.93 48.7234C24.83 48.3805 23.42 48.2139 21.72 48.2139C19.73 48.2139 17.89 48.547 16.22 49.2329C14.55 49.9089 13.11 50.8886 11.9 52.1525C10.7 53.4164 9.76 54.9546 9.09 56.7671C8.41 58.5797 8.07 60.6175 8.07 62.8807C8.07 65.2223 8.41 67.2994 9.09 69.1217C9.76 70.9441 10.68 72.4823 11.83 73.7265C12.98 74.9708 14.34 75.931 15.91 76.5874C17.48 77.2536 19.16 77.5867 20.96 77.5867C22.03 77.5867 23.01 77.528 23.88 77.4104C24.75 77.2928 25.55 77.1165 26.29 76.8617C27.02 76.6168 27.71 76.2935 28.37 75.9016C29.03 75.5097 29.68 75.0198 30.32 74.4516C30.52 74.2752 30.72 74.138 30.94 74.0303C31.15 73.9225 31.39 73.8735 31.64 73.8735Z" fill="#03989E"/>
<path fill-rule="evenodd" clip-rule="evenodd" d="M77.6 83.681H69.65V65.4969H49.75V83.681H41.79V42.0907H49.75V59.9809H69.65V42.0907H77.6V83.681Z" fill="#03989E"/>
<path fill-rule="evenodd" clip-rule="evenodd" d="M123.49 83.681H117.38C116.7 83.681 116.13 83.5144 115.69 83.1813C115.25 82.8482 114.94 82.4269 114.74 81.9272L111.57 73.4426H93.9899L90.8199 81.9272C90.6599 82.3681 90.3499 82.7698 89.8899 83.1323C89.4299 83.5046 88.8699 83.681 88.2099 83.681H82.0699L98.7399 42.0907H106.82L123.49 83.681ZM96.0099 67.9756H109.55L104.38 54.1416C104.14 53.5243 103.89 52.7993 103.6 51.9665C103.32 51.1338 103.04 50.2324 102.77 49.2526C102.49 50.2324 102.22 51.1436 101.96 51.9861C101.69 52.8287 101.43 53.5635 101.18 54.2004L96.0099 67.9756Z" fill="#03989E"/>
<path fill-rule="evenodd" clip-rule="evenodd" d="M149.17 66.4276C149.51 67.0351 149.82 67.6719 150.1 68.3381C150.38 68.9945 150.66 69.6608 150.94 70.3368C151.21 69.651 151.49 68.9652 151.79 68.2989C152.08 67.6229 152.39 66.9763 152.73 66.3688L165.29 43.3252C165.45 43.0411 165.61 42.8059 165.77 42.6394C165.94 42.463 166.13 42.3356 166.33 42.2671C166.54 42.1887 166.77 42.1397 167.02 42.1201C167.27 42.1005 167.58 42.0907 167.93 42.0907H173.89V83.681H166.93V56.8163C166.93 56.3166 166.95 55.768 166.98 55.1801C167.01 54.5825 167.05 53.975 167.11 53.3676L154.28 76.9501C153.99 77.489 153.61 77.9102 153.14 78.2042C152.67 78.4981 152.12 78.6451 151.49 78.6451H150.41C149.78 78.6451 149.23 78.4981 148.76 78.2042C148.29 77.9102 147.91 77.489 147.62 76.9501L134.62 53.2794C134.69 53.9162 134.75 54.5335 134.78 55.1311C134.81 55.7386 134.82 56.297 134.82 56.8163V83.681H127.86V42.0907H133.82C134.18 42.0907 134.48 42.1005 134.73 42.1201C134.99 42.1397 135.22 42.1887 135.42 42.2671C135.63 42.3356 135.82 42.463 136 42.6394C136.17 42.8059 136.34 43.0411 136.49 43.3252L149.17 66.4276Z" fill="black"/>
<path fill-rule="evenodd" clip-rule="evenodd" d="M209.23 42.0907V48.2435H190.42V59.7751H205.24V65.732H190.42V77.4987H209.23V83.681H182.46V42.0907H209.23Z" fill="black"/>
<path fill-rule="evenodd" clip-rule="evenodd" d="M224.94 83.681H217.02V42.0907H224.94V83.681Z" fill="black"/>
<path fill-rule="evenodd" clip-rule="evenodd" d="M242.76 20.3108C242.76 23.7007 241.81 27.0318 240.02 29.9613C238.22 32.9005 235.64 35.3401 232.53 37.0351C229.42 38.7202 225.9 39.6118 222.31 39.6118C218.72 39.6118 215.19 38.7202 212.08 37.0351C208.97 35.3401 206.39 32.9005 204.6 29.9613C202.8 27.0318 201.86 23.7007 201.86 20.3108C201.86 16.9209 202.8 13.5995 204.6 10.6603C206.39 7.73083 208.97 5.29126 212.08 3.5963C215.19 1.90134 218.72 1.00977 222.31 1.00977C225.9 1.00977 229.42 1.90134 232.53 3.5963C235.64 5.29126 238.22 7.73083 240.02 10.6603C241.81 13.5995 242.76 16.9209 242.76 20.3108Z" fill="black"/>
<path fill-rule="evenodd" clip-rule="evenodd" d="M242.76 20.3108C242.76 23.7007 241.81 27.0318 240.02 29.9613C238.22 32.9005 235.64 35.3401 232.53 37.0351C229.42 38.7202 225.9 39.6118 222.31 39.6118C218.72 39.6118 215.19 38.7202 212.08 37.0351C208.97 35.3401 206.39 32.9005 204.6 29.9613C202.8 27.0318 201.86 23.7007 201.86 20.3108C201.86 16.9209 202.8 13.5995 204.6 10.6603C206.39 7.73083 208.97 5.29126 212.08 3.5963C215.19 1.90134 218.72 1.00977 222.31 1.00977C225.9 1.00977 229.42 1.90134 232.53 3.5963C235.64 5.29126 238.22 7.73083 240.02 10.6603C241.81 13.5995 242.76 16.9209 242.76 20.3108Z" stroke="#3465A4" stroke-width="0.28222" stroke-linejoin="round"/>
<path fill-rule="evenodd" clip-rule="evenodd" d="M225.75 15.363C225.75 15.9901 225.57 16.6073 225.24 17.1462C224.9 17.685 224.42 18.1357 223.84 18.4492C223.26 18.7628 222.61 18.9293 221.94 18.9293C221.27 18.9293 220.61 18.7628 220.04 18.4492C219.46 18.1357 218.98 17.685 218.64 17.1462C218.31 16.6073 218.13 15.9901 218.13 15.363C218.13 14.736 218.31 14.1286 218.64 13.5799C218.98 13.041 219.46 12.5903 220.04 12.2768C220.61 11.9633 221.27 11.7968 221.94 11.7968C222.61 11.7968 223.26 11.9633 223.84 12.2768C224.42 12.5903 224.9 13.041 225.24 13.5799C225.57 14.1286 225.75 14.736 225.75 15.363Z" fill="white"/>
<path fill-rule="evenodd" clip-rule="evenodd" d="M227.64 22.8287C227.64 23.4558 227.38 24.073 226.88 24.6119C226.38 25.1507 225.66 25.6014 224.79 25.9149C223.92 26.2285 222.94 26.395 221.94 26.395C220.94 26.395 219.95 26.2285 219.09 25.9149C218.22 25.6014 217.5 25.1507 217 24.6119C216.5 24.073 216.24 23.4558 216.24 22.8287C216.24 22.2017 216.5 21.5942 217 21.0456C217.5 20.5067 218.22 20.056 219.09 19.7425C219.95 19.429 220.94 19.2625 221.94 19.2625C222.94 19.2625 223.92 19.429 224.79 19.7425C225.66 20.056 226.38 20.5067 226.88 21.0456C227.38 21.5942 227.64 22.2017 227.64 22.8287Z" fill="white"/>
<path fill-rule="evenodd" clip-rule="evenodd" d="M235.83 18.7335C235.83 19.1646 235.71 19.5957 235.47 19.968C235.23 20.3403 234.89 20.6539 234.47 20.8694C234.06 21.0849 233.59 21.1927 233.11 21.1927C232.64 21.1927 232.17 21.0849 231.76 20.8694C231.34 20.6539 231 20.3403 230.76 19.968C230.52 19.5957 230.4 19.1646 230.4 18.7335C230.4 18.3025 230.52 17.8812 230.76 17.5089C231 17.1366 231.34 16.823 231.76 16.6075C232.17 16.392 232.64 16.2842 233.11 16.2842C233.59 16.2842 234.06 16.392 234.47 16.6075C234.89 16.823 235.23 17.1366 235.47 17.5089C235.71 17.8812 235.83 18.3025 235.83 18.7335Z" fill="white"/>
<path fill-rule="evenodd" clip-rule="evenodd" d="M237.15 23.926C237.15 24.3571 236.96 24.7784 236.6 25.1507C236.25 25.523 235.74 25.8365 235.13 26.052C234.51 26.2676 233.82 26.3852 233.11 26.3852C232.4 26.3852 231.71 26.2676 231.09 26.052C230.48 25.8365 229.97 25.523 229.62 25.1507C229.26 24.7784 229.08 24.3571 229.08 23.926C229.08 23.4851 229.26 23.0638 229.62 22.6915C229.97 22.3192 230.48 22.0057 231.09 21.7901C231.71 21.5746 232.4 21.457 233.11 21.457C233.82 21.457 234.51 21.5746 235.13 21.7901C235.74 22.0057 236.25 22.3192 236.6 22.6915C236.96 23.0638 237.15 23.4851 237.15 23.926Z" fill="white"/>
<path fill-rule="evenodd" clip-rule="evenodd" d="M213.48 18.7335C213.48 19.1646 213.36 19.5957 213.12 19.968C212.88 20.3403 212.54 20.6539 212.12 20.8694C211.71 21.0849 211.24 21.1927 210.76 21.1927C210.29 21.1927 209.82 21.0849 209.41 20.8694C208.99 20.6539 208.65 20.3403 208.41 19.968C208.17 19.5957 208.05 19.1646 208.05 18.7335C208.05 18.3025 208.17 17.8812 208.41 17.5089C208.65 17.1366 208.99 16.823 209.41 16.6075C209.82 16.392 210.29 16.2842 210.76 16.2842C211.24 16.2842 211.71 16.392 212.12 16.6075C212.54 16.823 212.88 17.1366 213.12 17.5089C213.36 17.8812 213.48 18.3025 213.48 18.7335Z" fill="white"/>
<path fill-rule="evenodd" clip-rule="evenodd" d="M214.79 23.926C214.79 24.3571 214.6 24.7784 214.25 25.1507C213.89 25.523 213.38 25.8365 212.77 26.052C212.16 26.2676 211.46 26.3852 210.75 26.3852C210.04 26.3852 209.35 26.2676 208.73 26.052C208.12 25.8365 207.61 25.523 207.26 25.1507C206.9 24.7784 206.72 24.3571 206.72 23.926C206.72 23.4851 206.9 23.0638 207.26 22.6915C207.61 22.3192 208.12 22.0057 208.73 21.7901C209.35 21.5746 210.04 21.457 210.75 21.457C211.46 21.457 212.16 21.5746 212.77 21.7901C213.38 22.0057 213.89 22.3192 214.25 22.6915C214.6 23.0638 214.79 23.4851 214.79 23.926Z" fill="white"/>
<path fill-rule="evenodd" clip-rule="evenodd" d="M239.88 20.4695C239.88 23.3598 239.08 26.2011 237.55 28.6994C236.01 31.2076 233.81 33.2846 231.16 34.7249C228.51 36.1749 225.5 36.9391 222.44 36.9391C219.38 36.9391 216.37 36.1749 213.72 34.7249C211.07 33.2846 208.86 31.2076 207.33 28.6994C205.8 26.2011 205 23.3598 205 20.4695C205 17.5793 205.8 14.738 207.33 12.2397C208.86 9.73152 211.07 7.65446 213.72 6.21423C216.37 4.7642 219.38 4 222.44 4C225.5 4 228.51 4.7642 231.16 6.21423C233.81 7.65446 236.01 9.73152 237.55 12.2397C239.08 14.738 239.88 17.5793 239.88 20.4695Z" fill="white" fill-opacity="0.502" stroke="white" stroke-opacity="0.502" stroke-width="0.28222" stroke-linejoin="round"/>
<path fill-rule="evenodd" clip-rule="evenodd" d="M239.6 20.4383C239.6 23.3285 238.8 26.1698 237.27 28.6682C235.73 31.1763 233.53 33.2534 230.88 34.6936C228.23 36.1436 225.22 36.9078 222.16 36.9078C219.1 36.9078 216.09 36.1436 213.44 34.6936C210.79 33.2534 208.58 31.1763 207.05 28.6682C205.52 26.1698 204.72 23.3285 204.72 20.4383C204.72 17.548 205.52 14.7068 207.05 12.2084C208.58 9.70027 210.79 7.62321 213.44 6.18298C216.09 4.73295 219.1 3.96875 222.16 3.96875C225.22 3.96875 228.23 4.73295 230.88 6.18298C233.53 7.62321 235.73 9.70027 237.27 12.2084C238.8 14.7068 239.6 17.548 239.6 20.4383Z" stroke="#3465A4" stroke-width="0.28222" stroke-linejoin="round"/>
<path fill-rule="evenodd" clip-rule="evenodd" d="M150.69 21.1143V19.3214V17.5187H159.36V19.3214V21.1143H150.69Z" fill="black"/>
<path fill-rule="evenodd" clip-rule="evenodd" d="M144.86 31.7248L145.85 30.216L146.84 28.6974L156.18 34.5759L155.19 36.0945L154.2 37.6033L144.86 31.7248Z" fill="black"/>
<path fill-rule="evenodd" clip-rule="evenodd" d="M145.04 7.71137L146.03 9.22018L147.02 10.7388L156.36 4.8603L155.37 3.3417L154.38 1.83289L145.04 7.71137Z" fill="black"/>
</svg>
